<svg width="16" height="20" viewBox="0 0 16 20" fill="none" xmlns="http://www.w3.org/2000/svg">
<path d="M8 20C12.1174 20 15.4999 16.7371 15.4999 12.5491C15.4999 11.5209 15.4477 10.4188 14.8778 8.7058C14.3079 6.9929 14.1931 6.7718 13.5905 5.71395C13.333 7.8727 11.9555 8.7724 11.6055 9.0413C11.6055 8.76155 10.7722 5.66795 9.5088 3.81695C8.2685 2 6.5817 0.80796 5.59265 0C5.59265 1.53489 5.16095 3.81695 4.5427 4.9797C3.92445 6.14245 3.80835 6.1848 3.0361 7.0501C2.2639 7.9154 1.90945 8.18265 1.2637 9.23255C0.61798 10.2825 0.5 11.6809 0.5 12.7091C0.5 16.8971 3.88265 20 8 20Z" fill="url(#paint0_linear_1580_3778)"/>
<defs>
<linearGradient id="paint0_linear_1580_3778" x1="7.99995" y1="0" x2="7.99995" y2="20" gradientUnits="userSpaceOnUse">
<stop stop-color="#FF9737"/>
<stop offset="1" stop-color="#FF5300"/>
</linearGradient>
</defs>
</svg>
